C:\GBW_MyPrograms\KinderuniversiteitApp\Resultaten\Ellis\SpongeBob\SpongeBob_v2.mot
version=1
nRows=11
nColumns=29
inDegrees=yes
endheader
                time	         pelvis_tilt	           pelvis_tx	           pelvis_ty	       hip_flexion_l	       hip_flexion_r	        knee_angle_l	        knee_angle_r	       ankle_angle_l	       ankle_angle_r	    lumbar_extension	hamstrings_r/activation	bifemsh_r/activation	glut_max_r/activation	iliopsoas_r/activation	rect_fem_r/activation	  vasti_r/activation	gastroc_r/activation	 soleus_r/activation	tib_ant_r/activation	hamstrings_l/activation	bifemsh_l/activation	glut_max_l/activation	iliopsoas_l/activation	rect_fem_l/activation	  vasti_l/activation	gastroc_l/activation	 soleus_l/activation	tib_ant_l/activation	
          0.48375806	         -8.71733197	          0.60469757	          0.89533311	         28.28999872	         -6.19505986	         -3.20348958	        -12.54755276	          7.61826217	          6.32607616	          1.93992608	          0.05000045	          0.22629216	          0.05000019	          0.80275087	          0.05000032	          0.05000004	          0.28259867	          0.58886616	          0.05000003	          0.32665376	          0.05000104	          0.08251441	          0.05000035	          0.07599780	          0.08755991	          0.05000138	          0.05806233	          0.29616336	
          0.49343322	         -8.71117123	          0.61965540	          0.89468431	         27.31166584	         -5.69671813	         -2.59489272	        -15.17342250	          7.36751397	          5.56424453	          2.27371626	          0.05000111	          0.19486910	          0.05000018	          0.69128014	          0.05000023	          0.05000004	          0.24335675	          0.50709564	          0.05000002	          0.29600910	          0.05000062	          0.11307394	          0.05000017	          0.06544474	          0.10174806	          0.05000005	          0.05000005	          0.33666253	
          0.50310838	         -8.70219469	          0.63473032	          0.89394940	         26.32642400	         -5.00123519	         -2.49782439	        -18.13994435	          7.05420127	          4.59216596	          2.62174783	          0.08455406	          0.16780948	          0.05000015	          0.59528832	          0.05000014	          0.05000003	          0.20956400	          0.43667985	          0.05000002	          0.27206792	          0.05000533	          0.16606781	          0.05000012	          0.05635708	          0.08761930	          0.06331703	          0.05806300	          0.34257088	
          0.51278354	         -8.69535794	          0.64968831	          0.89330729	         25.32921179	         -4.07005095	         -2.45508259	        -21.43861012	          6.68754936	          3.24425624	          2.95959252	          0.07281320	          0.14450737	          0.06703738	          0.51262602	          0.05000009	          0.05000003	          0.18046374	          0.37604206	          0.05000001	          0.24139825	          0.05806773	          0.24576344	          0.05000007	          0.05000011	          0.07545249	          0.05452481	          0.05000034	          0.43550261	
          0.52245870	         -8.69605234	          0.66422081	          0.89302596	         24.39314278	         -2.87914969	         -2.43191856	        -25.02527468	          6.18891088	          1.45596001	          3.25371490	          0.06270244	          0.12444102	          0.05824140	          0.44144228	          0.05926605	          0.05000014	          0.15540438	          0.32382449	          0.40176712	          0.22920916	          0.05000520	          0.31227353	          0.05000006	          0.05000015	          0.14111303	          0.05000019	          0.05000017	          0.47514265	
          0.53213386	         -8.70706487	          0.67810865	          0.89317819	         23.55804458	         -1.48625796	         -2.50257974	        -28.75894382	          5.77526934	         -0.18709873	          3.47942844	          0.05399591	          0.10716122	          0.05015447	          0.38014319	          0.23621204	          0.05000008	          0.13382479	          0.27885791	          0.38434572	          0.20981171	          0.05000124	          0.34557283	          0.05000005	          0.05000014	          0.18059224	          0.05000016	          0.05000012	          0.50592509	
          0.54180902	         -8.72914142	          0.69132641	          0.89380949	         22.81097460	         -0.00389405	         -2.64708360	        -32.34946335	          5.49699925	         -0.71128006	          3.63479243	          0.05000105	          0.09228513	          0.05000009	          0.32735617	          0.36369005	          0.05000004	          0.11524178	          0.24013543	          0.47112857	          0.19874711	          0.05000168	          0.33561174	          0.05000007	          0.05000020	          0.18598571	          0.05000028	          0.05000030	          0.49341796	
          0.55148418	         -8.75982944	          0.70397833	          0.89496049	         22.12451790	          1.50156371	         -2.83583402	        -35.60297730	          5.37201398	         -0.82588617	          3.73083811	          0.05000195	          0.14800249	          0.05000008	          0.28189926	          0.47491733	          0.05000003	          0.09923928	          0.20679000	          0.46901991	          0.18738414	          0.05000176	          0.32265006	          0.05000009	          0.05000024	          0.18351073	          0.05000033	          0.05000042	          0.47147831	
          0.56115935	         -8.79657516	          0.71618940	          0.89654417	         21.47045215	          2.98966745	         -3.03239584	        -38.43496420	          5.36157010	         -0.75002789	          3.78091318	          0.05000100	          0.18866410	          0.05000007	          0.24322044	          0.55257327	          0.05000003	          0.08912601	          0.17807494	          0.44399283	          0.17918571	          0.05000189	          0.30533278	          0.05000010	          0.05000028	          0.17525145	          0.05000039	          0.05000051	          0.44422594	
          0.57083451	         -8.83689569	          0.72807391	          0.89842425	         20.82375939	          4.43815410	         -3.20447971	        -40.82272749	          5.42139427	         -0.53891545	          3.79684213	          0.05000090	          0.23650273	          0.05000006	          0.23052013	          0.59517874	          0.05000004	          0.08577865	          0.15334729	          0.41615862	          0.17637537	          0.05000210	          0.29445866	          0.05000011	          0.05000030	          0.16592890	          0.05000036	          0.05000041	          0.41952282	
          0.58050967	         -8.87874566	          0.73971788	          0.90046501	         20.16507929	          5.84287558	         -3.32654493	        -42.78832597	          5.51330531	         -0.23778808	          3.78717968	          0.05000072	          0.28909982	          0.05000007	          0.22682389	          0.61060515	          0.05000004	          0.07864406	          0.13205334	          0.38466344	          0.17379492	          0.05000206	          0.28543161	          0.05000011	          0.05000030	          0.15949387	          0.05000031	          0.05000031	          0.39978834	
